<svg xmlns="http://www.w3.org/2000/svg" xmlns:xlink="http://www.w3.org/1999/xlink" version="1.1" x="0px" y="0px" viewBox="0 0 100 125" enable-background="new 0 0 100 100" xml:space="preserve"><g><g><line fill="none" stroke="#000000" stroke-width="3" stroke-linecap="round" stroke-linejoin="round" stroke-miterlimit="10" x1="30.905" y1="66.943" x2="51.78" y2="66.943"/><line fill="none" stroke="#000000" stroke-width="3" stroke-linecap="round" stroke-linejoin="round" stroke-miterlimit="10" x1="41.343" y1="56.506" x2="41.343" y2="77.381"/></g><g><g><path d="M88.991,18.018L16.403,18.01c-1.384,0-2.506-1.123-2.506-2.508c0-1.383,1.122-2.504,2.506-2.504l63.114-0.01     c1.657,0,3-1.344,3-3c0-1.658-1.343-3-3-3H14.389c-3.859,0-7,3.141-7,7v63.125c0,1.998,1.62,3.619,3.62,3.619h7.694     C23.395,88.105,31.633,93.012,41,93.012s17.605-4.906,22.297-12.279h25.694c2,0,3.62-1.621,3.62-3.619V21.639     C92.611,19.639,90.991,18.018,88.991,18.018z M41,88.012c-11.808,0-21.414-9.605-21.414-21.412c0-0.889,0.056-1.785,0.165-2.664     c1.324-10.689,10.46-18.75,21.249-18.75c2.764,0,5.451,0.518,7.989,1.537c8.155,3.281,13.425,11.082,13.425,19.877     C62.414,78.406,52.808,88.012,41,88.012z M87.074,42.479H67.465c-3.707,0-6.712-3.004-6.712-6.711     c0-3.709,3.005-6.713,6.712-6.713h19.609V42.479z M65.251,35.768c0,1.588,1.287,2.877,2.877,2.877s2.877-1.289,2.877-2.877     c0-1.59-1.287-2.877-2.877-2.877S65.251,34.178,65.251,35.768z"/></g></g></g><text x="0" y="115" fill="#000000" font-size="5px" font-weight="bold" font-family="'Helvetica Neue', Helvetica, Arial-Unicode, Arial, Sans-serif">Created by Deepz</text><text x="0" y="120" fill="#000000" font-size="5px" font-weight="bold" font-family="'Helvetica Neue', Helvetica, Arial-Unicode, Arial, Sans-serif">from the Noun Project</text></svg>